<?xml version="1.0" standalone="no"?>
<!DOCTYPE svg PUBLIC "-//W3C//DTD SVG 20010904//EN"
 "http://www.w3.org/TR/2001/REC-SVG-20010904/DTD/svg10.dtd">
<svg version="1.0" xmlns="http://www.w3.org/2000/svg"
 width="500.000000pt" height="500.000000pt" viewBox="0 0 500.000000 500.000000"
 preserveAspectRatio="xMidYMid meet">
<metadata>
Created by potrace 1.14, written by Peter Selinger 2001-2017
</metadata>
<g transform="translate(0.000000,500.000000) scale(0.100000,-0.100000)"
fill="#000000" stroke="none">
<path d="M1475 4710 c-173 -45 -246 -95 -475 -322 -58 -58 -134 -235 -165
-385 -17 -82 -26 -99 -100 -193 -150 -189 -155 -260 -36 -465 62 -107 141
-251 141 -258 0 -3 -55 19 -122 49 -68 29 -150 60 -182 68 -54 14 -62 14 -84
0 -25 -16 -25 -19 -6 -114 7 -40 -33 -92 -84 -108 -23 -8 -42 -19 -42 -26 0
-7 52 -56 115 -110 65 -55 176 -167 257 -258 147 -166 245 -252 321 -284 l43
-18 1 -175 c0 -191 16 -313 60 -455 13 -44 27 -90 29 -101 4 -15 -12 -35 -63
-79 -100 -86 -179 -181 -220 -263 -31 -63 -36 -82 -35 -142 0 -84 20 -131 90
-221 l51 -65 -47 -13 c-146 -42 -324 -119 -369 -161 -40 -37 -41 -48 -8 -63
14 -6 25 -17 25 -25 0 -7 19 -26 43 -43 23 -16 51 -38 62 -49 32 -32 114 -63
164 -63 122 2 522 21 566 27 333 45 418 135 256 269 l-48 39 64 93 c35 51 68
96 72 99 5 3 38 -2 72 -11 62 -16 193 -15 245 1 19 6 25 -2 54 -71 46 -111 51
-195 16 -295 -37 -106 -35 -118 22 -161 78 -58 148 -75 154 -35 2 15 11 23 30
25 22 3 30 -4 55 -47 15 -28 33 -53 40 -55 7 -3 35 17 63 44 63 62 104 68 114
20 5 -30 7 -31 43 -24 54 9 102 33 121 61 9 13 29 40 45 60 36 47 35 98 -3
188 -17 38 -30 73 -30 77 0 19 86 138 99 138 9 0 31 -4 49 -10 19 -5 78 -14
133 -21 433 -50 821 222 1021 716 44 107 81 254 75 296 -5 36 4 51 18 30 6
-11 39 -8 76 7 31 13 59 53 59 86 0 32 52 92 86 100 16 4 24 12 21 21 -7 15
14 35 40 39 30 5 51 46 88 174 38 136 41 153 23 181 -9 15 -9 23 1 35 7 9 17
14 21 11 5 -3 12 0 16 6 3 6 0 15 -7 20 -19 11 -13 124 11 198 22 70 13 100
-42 144 -39 31 -39 32 -19 48 18 15 19 17 3 33 -12 12 -17 37 -19 89 -1 39 -2
78 -2 85 -2 26 -49 62 -82 62 -28 0 -134 -46 -165 -71 -6 -5 -36 -16 -65 -25
-76 -23 -124 -49 -174 -95 -35 -32 -54 -65 -95 -162 -54 -127 -57 -148 -34
-248 4 -19 -1 -34 -21 -57 -15 -18 -23 -32 -19 -32 4 0 -7 -14 -24 -31 -18
-17 -32 -36 -32 -42 0 -6 -6 -18 -14 -26 -15 -17 -56 -207 -56 -257 0 -16 13
-54 30 -84 16 -30 29 -63 30 -72 0 -9 24 -38 54 -63 l54 -47 -61 -89 c-111
-164 -246 -276 -387 -320 -140 -45 -351 -19 -510 61 l-60 30 0 88 c0 198 -49
369 -182 631 -48 95 -88 177 -88 181 0 4 17 11 38 15 59 11 156 61 210 110 27
25 77 85 111 135 60 87 96 121 210 196 88 58 76 94 -30 94 -32 0 -60 4 -63 9
-12 18 13 145 30 158 26 19 10 39 -40 52 -65 16 -108 7 -312 -64 -156 -55
-356 -106 -369 -94 -14 15 -27 256 -26 497 1 210 -3 309 -14 388 -63 419 -283
711 -596 788 -87 21 -225 20 -314 -4z"/>
<path d="M4455 2020 c4 -6 11 -8 16 -5 14 9 11 15 -7 15 -8 0 -12 -5 -9 -10z"/>
</g>
</svg>
